{"title":"Abducted.2014.DVDRIP.XVID.AC3-Insane098","uid":10053108,"size":1123618374,"categoryP":"video","categoryS":"movies","magnet":"?xt=urn:btih:6bb20a90ff3e977bf7209b987449277ac9e7eb34&amp;dn=Abducted.2014.DVDRIP.XVID.AC3-Insane098&amp;tr=udp%3A%2F%2Ftracker.openbittorrent.com%3A80&amp;tr=udp%3A%2F%2Fopen.demonii.com%3A1337&amp;tr=udp%3A%2F%2Ftracker.coppersurfer.tk%3A6969&amp;tr=udp%3A%2F%2Fexodus.desync.com%3A6969","seeders":1,"leechers":0,"uploader":"098765432","files":-1,"time":1398633316,"description":"Plot:\nIn an attempt to rebuild his marriage after the death of his son, Matt Hollis decides to take his wife and six year old daughter Lara on a trip of a lifetime to LA, to escape the constant reminders of their loss. Shortly after their arrival Matt's world is turned upside down when his wife is attacked in their holiday home, leaving her in a coma and their daughter LARA kidnapped by a child trafficking ring. Hunted by the police who mistakenly believe Matt has absconded with his daughter, he must evade capture and pursue the criminals responsible for Lara's abduction. Realizing he only has a 72-hour window of opportunity if he ever wants to see his daughter alive again, he enlists the help of Syan an old forces buddy, Matt tears a path of bloody vengeance through the streets of LA on a collision course with Lara's captors.\n\nScreenshots: &lt;a href=&quot;\nhttp://i1186.photobucket.com/albums/z372/Insane098/Screenshots/Abducted1.jpg&quot; rel=&quot;nofollow&quot; target=&quot;_NEW&quot;&gt;\nhttp://i1186.photobucket.com/albums/z372/Insane098/Screenshots/Abducted1.jpg&lt;/a&gt; &lt;a href=&quot;\nhttp://i1186.photobucket.com/albums/z372/Insane098/Screenshots/Abducted2.jpg&quot; rel=&quot;nofollow&quot; target=&quot;_NEW&quot;&gt;\nhttp://i1186.photobucket.com/albums/z372/Insane098/Screenshots/Abducted2.jpg&lt;/a&gt; &lt;a href=&quot;\nhttp://i1186.photobucket.com/albums/z372/Insane098/Screenshots/Abducted3.jpg&quot; rel=&quot;nofollow&quot; target=&quot;_NEW&quot;&gt;\nhttp://i1186.photobucket.com/albums/z372/Insane098/Screenshots/Abducted3.jpg&lt;/a&gt; &lt;a href=&quot;\nhttp://i1186.photobucket.com/albums/z372/Insane098/Screenshots/Abducted4.jpg&quot; rel=&quot;nofollow&quot; target=&quot;_NEW&quot;&gt;\nhttp://i1186.photobucket.com/albums/z372/Insane098/Screenshots/Abducted4.jpg&lt;/a&gt;\n\nMedia Info:\nFormat                                   : AVI\nFormat/Info                              : Audio Video Interleave\nFile size                                : 1.03 GiB\nDuration                                 : 1h 26mn\nOverall bit rate                         : 1 704 Kbps\n\nVideo\nID                                       : 0\nFormat                                   : MPEG-4 Visual\nFormat profile                           : Advanced Simple@L5\nFormat settings, BVOP                    : 2\nFormat settings, QPel                    : No\nFormat settings, GMC                     : No warppoints\nFormat settings, Matrix                  : Default (H.263)\nMuxing mode                              : Packed bitstream\nCodec ID                                 : XVID\nCodec ID/Hint                            : XviD\nDuration                                 : 1h 26mn\nBit rate                                 : 1 248 Kbps\nWidth                                    : 720 pixels\nHeight                                   : 400 pixels\nDisplay aspect ratio                     : 16:9\nFrame rate                               : 25.000 fps\nColor space                              : YUV\nChroma subsampling                       : 4:2:0\nBit depth                                : 8 bits\nScan type                                : Progressive\nCompression mode                         : Lossy\nBits/(Pixel*Frame)                       : 0.173\nStream size                              : 772 MiB (73%)\nWriting library                          : XviD 1.2.1 (UTC 2008-12-04)\n\nAudio\nID                                       : 1\nFormat                                   : AC-3\nFormat/Info                              : Audio Coding 3\nMode extension                           : CM (complete main)\nFormat settings, Endianness              : Big\nCodec ID                                 : 2000\nDuration                                 : 1h 26mn\nBit rate mode                            : Constant\nBit rate                                 : 448 Kbps\nChannel count                            : 6 channels\nChannel positions                        : Front: L C R, Side: L R, LFE\nSampling rate                            : 48.0 KHz\nBit depth                                : 16 bits\nCompression mode                         : Lossy\nStream size                              : 277 MiB (26%)\nAlignment                                : Aligned on interleaves\nInterleave, duration                     : 64 ms (1.60 video frames)\nInterleave, preload duration             : 192 ms\nTitle                                    : Englis","torrent":{"xt":"urn:btih:6bb20a90ff3e977bf7209b987449277ac9e7eb34","amp;dn":"Abducted.2014.DVDRIP.XVID.AC3-Insane098","amp;tr":["udp%3A%2F%2Ftracker.openbittorrent.com%3A80","udp%3A%2F%2Fopen.demonii.com%3A1337","udp%3A%2F%2Ftracker.coppersurfer.tk%3A6969","udp%3A%2F%2Fexodus.desync.com%3A6969"],"infoHash":"6bb20a90ff3e977bf7209b987449277ac9e7eb34","infoHashBuffer":{"type":"Buffer","data":[107,178,10,144,255,62,151,123,247,32,155,152,116,73,39,122,201,231,235,52]},"announce":[],"urlList":[]}}